<svg width="60.679688" height="40.000000" viewBox="0 0 60.6797 40" fill="none" xmlns="http://www.w3.org/2000/svg" xmlns:xlink="http://www.w3.org/1999/xlink">
	<desc>
			Created with Pixso.
	</desc>
	<defs>
		<clipPath id="clip81_6075">
			<rect id="book" width="24.000000" height="24.000000" transform="translate(18.284668 1.000000)" fill="white" fill-opacity="0"/>
		</clipPath>
	</defs>
	<path id="Label" d="M59.87 32.41Q60.22 32.01 60.28 31.35L59.3 31.35Q59.25 31.87 58.98 32.06Q58.71 32.25 58.26 32.25Q57.74 32.25 57.51 32.08Q57.27 31.9 57.22 31.35L56.25 31.35Q56.29 31.87 56.48 32.22Q56.52 32.29 56.57 32.35Q56.76 32.61 57.1 32.75Q57.53 32.94 58.25 32.94Q59.3 32.94 59.75 32.52Q59.81 32.47 59.87 32.41ZM-0.01 31.85L-0.01 39L2.08 39Q3.52 39 4.15 38.43Q4.31 38.28 4.43 38.11Q4.78 37.6 4.78 36.87Q4.78 36.29 4.54 35.84Q4.53 35.82 4.52 35.8Q4.51 35.78 4.5 35.76Q4.24 35.31 3.65 35.06Q3.04 34.8 1.99 34.8L1.07 34.8L1.07 32.78L4.32 32.78L4.32 31.85L-0.01 31.85ZM9.7 33.95Q9.2 33.5 8.19 33.5Q7.65 33.5 7.15 33.64Q6.65 33.78 6.28 33.98L6.62 34.74Q6.96 34.58 7.35 34.46Q7.44 34.43 7.53 34.41Q7.82 34.33 8.14 34.33Q8.62 34.33 8.88 34.57Q8.89 34.58 8.89 34.58Q9.16 34.83 9.16 35.42L9.16 35.72L8.25 35.75Q6.95 35.78 6.33 36.21Q6.08 36.39 5.94 36.62Q5.71 36.97 5.71 37.46Q5.71 38.2 6.08 38.59Q6.13 38.65 6.2 38.7Q6.28 38.77 6.36 38.82Q6.8 39.1 7.41 39.1Q8.08 39.1 8.47 38.89Q8.85 38.68 9.21 38.25L9.24 38.25L9.45 39L10.2 39L10.2 35.35Q10.2 34.45 9.76 34.01Q9.73 33.98 9.7 33.95ZM14.91 33.87Q14.33 33.5 13.41 33.5Q12.84 33.5 12.34 33.6Q11.84 33.7 11.41 33.89L11.75 34.69Q12.16 34.52 12.52 34.43Q12.89 34.34 13.32 34.34Q14.22 34.34 14.44 34.73Q14.52 34.86 14.52 35.04Q14.52 35.22 14.43 35.36Q14.33 35.53 14.1 35.62Q13.69 35.78 12.99 35.78L12.42 35.78L12.42 36.6L13.09 36.6Q14.28 36.6 14.55 37.09Q14.63 37.24 14.63 37.43Q14.63 37.65 14.53 37.8Q14.42 37.97 14.21 38.06Q13.8 38.25 13.2 38.25Q12.64 38.25 12.16 38.12Q11.69 37.98 11.34 37.83L11.34 38.75Q12.03 39.1 13.26 39.1Q14.09 39.1 14.62 38.88Q15.16 38.67 15.41 38.3Q15.56 38.08 15.62 37.85Q15.67 37.67 15.67 37.49Q15.67 37.08 15.5 36.82Q15.42 36.69 15.31 36.59Q15.2 36.48 15.07 36.41Q14.79 36.26 14.46 36.17L14.46 36.12Q14.94 35.99 15.21 35.71Q15.26 35.66 15.3 35.6Q15.49 35.33 15.49 34.93Q15.49 34.58 15.35 34.31Q15.2 34.05 14.91 33.87ZM20.53 33.95Q20.03 33.5 19.02 33.5Q18.48 33.5 17.98 33.64Q17.48 33.78 17.11 33.98L17.45 34.74Q17.79 34.58 18.18 34.46Q18.27 34.43 18.36 34.41Q18.65 34.33 18.97 34.33Q19.45 34.33 19.71 34.57Q19.72 34.58 19.72 34.58Q19.99 34.83 19.99 35.42L19.99 35.72L19.08 35.75Q17.78 35.78 17.16 36.21Q16.91 36.39 16.77 36.62Q16.54 36.97 16.54 37.46Q16.54 38.2 16.91 38.59Q16.96 38.65 17.03 38.7Q17.11 38.77 17.19 38.82Q17.63 39.1 18.24 39.1Q18.91 39.1 19.3 38.89Q19.68 38.68 20.04 38.25L20.07 38.25L20.28 39L21.03 39L21.03 35.35Q21.03 34.45 20.59 34.01Q20.56 33.98 20.53 33.95ZM28.39 33.87Q27.8 33.5 26.89 33.5Q26.32 33.5 25.82 33.6Q25.32 33.7 24.88 33.89L25.23 34.69Q25.63 34.52 26 34.43Q26.37 34.34 26.8 34.34Q27.7 34.34 27.92 34.73Q28 34.86 28 35.04Q28 35.22 27.91 35.36Q27.81 35.53 27.58 35.62Q27.16 35.78 26.46 35.78L25.9 35.78L25.9 36.6L26.57 36.6Q27.76 36.6 28.03 37.09Q28.1 37.24 28.1 37.43Q28.1 37.65 28.01 37.8Q27.9 37.97 27.69 38.06Q27.27 38.25 26.67 38.25Q26.12 38.25 25.64 38.12Q25.17 37.98 24.82 37.83L24.82 38.75Q25.5 39.1 26.74 39.1Q27.57 39.1 28.1 38.88Q28.63 38.67 28.89 38.3Q29.04 38.08 29.1 37.85Q29.14 37.67 29.14 37.49Q29.14 37.08 28.98 36.82Q28.9 36.69 28.79 36.59Q28.68 36.48 28.54 36.41Q28.27 36.26 27.94 36.17L27.94 36.12Q28.41 35.99 28.69 35.71Q28.74 35.66 28.78 35.6Q28.97 35.33 28.97 34.93Q28.97 34.58 28.83 34.31Q28.68 34.05 28.39 33.87ZM40.45 33.95Q39.94 33.5 38.93 33.5Q38.39 33.5 37.9 33.64Q37.4 33.78 37.03 33.98L37.36 34.74Q37.71 34.58 38.09 34.46Q38.18 34.43 38.28 34.41Q38.57 34.33 38.89 34.33Q39.37 34.33 39.63 34.57Q39.64 34.58 39.64 34.58Q39.91 34.83 39.91 35.42L39.91 35.72L39 35.75Q37.7 35.78 37.08 36.21Q36.83 36.39 36.68 36.62Q36.46 36.97 36.46 37.46Q36.46 38.2 36.83 38.59Q36.88 38.65 36.94 38.7Q37.03 38.77 37.11 38.82Q37.55 39.1 38.16 39.1Q38.83 39.1 39.22 38.89Q39.6 38.68 39.95 38.25L39.99 38.25L40.2 39L40.95 39L40.95 35.35Q40.95 34.45 40.51 34.01Q40.48 33.98 40.45 33.95ZM31.46 35.79L31.46 33.6L30.4 33.6L30.4 39L31.46 39L31.46 36.64L34.13 36.64L34.13 39L35.18 39L35.18 33.6L34.13 33.6L34.13 35.79L31.46 35.79ZM43.64 35.79L43.64 33.6L42.58 33.6L42.58 39L43.64 39L43.64 36.64L46.31 36.64L46.31 39L47.36 39L47.36 33.6L46.31 33.6L46.31 35.79L43.64 35.79ZM50.02 36.98Q50.04 36.71 50.04 36.54L50.04 33.6L49.02 33.6L49.02 39L50.32 39L53.07 34.71Q53.06 34.84 53.05 35.11Q53.03 35.37 53.02 35.66Q53.01 35.94 53.01 36.12L53.01 39L54.01 39L54.01 33.6L52.72 33.6L49.95 37.91Q49.97 37.77 49.99 37.51Q50 37.24 50.02 36.98ZM56.68 36.98Q56.7 36.71 56.7 36.54L56.7 33.6L55.68 33.6L55.68 39L56.98 39L59.73 34.71Q59.72 34.84 59.71 35.11Q59.69 35.37 59.68 35.66Q59.67 35.94 59.67 36.12L59.67 39L60.67 39L60.67 33.6L59.38 33.6L56.61 37.91Q56.63 37.77 56.65 37.51Q56.66 37.24 56.68 36.98ZM3.27 37.79Q2.89 38.08 2 38.08L1.07 38.08L1.07 35.7L1.86 35.7Q2.8 35.7 3.23 35.96Q3.33 36.01 3.41 36.09Q3.66 36.36 3.66 36.87Q3.66 37.37 3.42 37.66Q3.35 37.73 3.27 37.79ZM7.16 36.73Q7.52 36.47 8.43 36.42L9.15 36.4L9.15 36.88Q9.15 37.45 8.87 37.79Q8.81 37.87 8.74 37.93Q8.65 38 8.54 38.06Q8.19 38.27 7.7 38.27Q7.31 38.27 7.05 38.08Q7.01 38.05 6.98 38.02Q6.81 37.83 6.81 37.47Q6.81 37.19 6.93 36.98Q7.02 36.84 7.16 36.73ZM17.99 36.73Q18.35 36.47 19.26 36.42L19.98 36.4L19.98 36.88Q19.98 37.45 19.7 37.79Q19.64 37.87 19.57 37.93Q19.48 38 19.37 38.06Q19.02 38.27 18.53 38.27Q18.14 38.27 17.88 38.08Q17.84 38.05 17.81 38.02Q17.64 37.83 17.64 37.47Q17.64 37.19 17.76 36.98Q17.85 36.84 17.99 36.73ZM37.91 36.73Q38.27 36.47 39.18 36.42L39.9 36.4L39.9 36.88Q39.9 37.45 39.62 37.79Q39.56 37.87 39.49 37.93Q39.4 38 39.29 38.06Q38.93 38.27 38.45 38.27Q38.06 38.27 37.8 38.08Q37.76 38.05 37.73 38.02Q37.55 37.83 37.55 37.47Q37.55 37.19 37.68 36.98Q37.77 36.84 37.91 36.73Z" fill="#999999" fill-opacity="1.000000" fill-rule="evenodd"/>
	<rect id="book" width="24.000000" height="24.000000" transform="translate(18.284668 1.000000)" fill="#FFFFFF" fill-opacity="0"/>
	<g clip-path="url(#clip81_6075)">
		<path id="Vector 37" d="M22.48 21.5C22.48 22.05 22.93 22.5 23.48 22.5L34.98 22.5C36.64 22.5 37.98 21.15 37.98 19.5L37.98 7C37.98 5.34 36.64 4 34.98 4L23.48 4C22.93 4 22.48 4.44 22.48 5L22.48 21.5Z" stroke="#999999" stroke-opacity="1.000000" stroke-width="2.000000"/>
		<path id="Vector 38" d="M22.48 15C22.48 16.65 23.82 18 25.48 18L34.98 18C36.64 18 37.98 16.65 37.98 15" stroke="#999999" stroke-opacity="1.000000" stroke-width="2.000000" stroke-linecap="round"/>
		<path id="Vector 39" d="M27.48 9L32.98 9" stroke="#999999" stroke-opacity="1.000000" stroke-width="2.000000" stroke-linecap="round"/>
	</g>
</svg>
