<svg width="48.000000" height="41.400391" viewBox="0 0 48 41.4004" fill="none" xmlns="http://www.w3.org/2000/svg" xmlns:xlink="http://www.w3.org/1999/xlink">
	<desc>
			Created with Pixso.
	</desc>
	<defs>
		<clipPath id="clip81_6045">
			<rect id="check" width="24.000000" height="24.000000" transform="translate(12.000000 1.000000)" fill="white" fill-opacity="0"/>
		</clipPath>
	</defs>
	<path id="Label" d="M0.05 31.85L0.05 39L1.13 39L1.13 32.78L4.42 32.78L4.42 39L5.49 39L5.49 31.85L0.05 31.85ZM10.97 33.74Q10.53 33.5 9.98 33.5Q9.35 33.5 8.96 33.75Q8.57 33.99 8.34 34.32L8.3 34.32L8.14 33.6L7.29 33.6L7.29 41.39L8.34 41.39L8.34 39.2Q8.34 39 8.33 38.76Q8.31 38.51 8.27 38.34L8.34 38.34Q8.57 38.65 8.96 38.87Q9.35 39.1 9.97 39.1Q10.5 39.1 10.92 38.88Q11.27 38.7 11.54 38.38Q12.14 37.66 12.14 36.29Q12.14 34.91 11.54 34.21Q11.29 33.91 10.97 33.74ZM17.6 38.31Q18.24 37.59 18.24 36.29Q18.24 35.39 17.91 34.78Q17.68 34.33 17.32 34.04Q17.18 33.92 17.02 33.83Q16.99 33.81 16.95 33.8Q16.41 33.5 15.71 33.5Q14.82 33.5 14.21 33.92Q14.02 34.05 13.85 34.23Q13.84 34.24 13.83 34.25Q13.18 34.98 13.18 36.29Q13.18 37.19 13.5 37.81Q13.74 38.27 14.11 38.57Q14.24 38.68 14.39 38.77Q14.46 38.8 14.52 38.84Q15.04 39.1 15.68 39.1Q16.54 39.1 17.14 38.7Q17.36 38.56 17.55 38.37Q17.57 38.34 17.6 38.31ZM28.95 33.88Q28.41 33.5 27.61 33.5Q26.95 33.5 26.43 33.79Q26.39 33.81 26.34 33.84Q26.22 33.91 26.11 34Q25.73 34.31 25.49 34.81Q25.19 35.44 25.19 36.35Q25.19 37.24 25.52 37.86Q25.73 38.24 26.04 38.51Q26.22 38.67 26.45 38.79Q27.05 39.1 27.83 39.1Q28.41 39.1 28.82 39Q29.23 38.91 29.64 38.74L29.64 37.85Q29.21 38.05 28.8 38.14Q28.4 38.24 27.88 38.24Q27.26 38.24 26.87 37.94Q26.78 37.87 26.71 37.8Q26.3 37.35 26.27 36.52L29.89 36.52L29.89 35.95Q29.89 34.93 29.4 34.3Q29.35 34.23 29.28 34.16Q29.13 34 28.95 33.88ZM34.9 33.74Q34.46 33.5 33.91 33.5Q33.28 33.5 32.89 33.75Q32.5 33.99 32.27 34.32L32.23 34.32L32.07 33.6L31.22 33.6L31.22 41.39L32.27 41.39L32.27 39.2Q32.27 39 32.26 38.76Q32.24 38.51 32.2 38.34L32.27 38.34Q32.5 38.65 32.89 38.87Q33.28 39.1 33.9 39.1Q34.43 39.1 34.85 38.88Q35.2 38.7 35.47 38.38Q36.07 37.66 36.07 36.29Q36.07 34.91 35.47 34.21Q35.22 33.91 34.9 33.74ZM46.58 33.95Q46.08 33.5 45.06 33.5Q44.53 33.5 44.03 33.64Q43.53 33.78 43.16 33.98L43.5 34.74Q43.84 34.58 44.23 34.46Q44.32 34.43 44.41 34.41Q44.7 34.33 45.02 34.33Q45.5 34.33 45.76 34.57Q45.77 34.58 45.77 34.58Q46.04 34.83 46.04 35.42L46.04 35.72L45.13 35.75Q43.83 35.78 43.21 36.21Q42.96 36.39 42.81 36.62Q42.59 36.97 42.59 37.46Q42.59 38.2 42.96 38.59Q43.01 38.65 43.08 38.7Q43.16 38.77 43.24 38.82Q43.68 39.1 44.29 39.1Q44.96 39.1 45.35 38.89Q45.73 38.68 46.09 38.25L46.12 38.25L46.33 39L47.08 39L47.08 35.35Q47.08 34.45 46.64 34.01Q46.61 33.98 46.58 33.95ZM23.87 35.61Q24.05 35.35 24.05 34.97Q24.05 34.53 23.83 34.24Q23.8 34.2 23.77 34.17Q23.5 33.87 23.02 33.74Q22.56 33.6 21.97 33.6L19.58 33.6L19.58 39L21.97 39Q23.16 39 23.69 38.55Q23.96 38.31 24.09 38.02Q24.22 37.74 24.22 37.41Q24.22 36.98 24.01 36.7Q23.94 36.61 23.85 36.54Q23.8 36.5 23.76 36.47Q23.42 36.24 22.97 36.18L22.97 36.14Q23.45 36.05 23.74 35.76Q23.75 35.76 23.75 35.76Q23.82 35.69 23.87 35.61ZM41.87 33.6L40.71 33.6L38.47 36.22L38.47 33.6L37.42 33.6L37.42 39L38.47 39L38.47 36.27L40.84 39L42.06 39L39.61 36.19L41.87 33.6ZM26.95 34.49Q27.23 34.32 27.61 34.32Q28.09 34.32 28.38 34.56Q28.46 34.63 28.53 34.72Q28.83 35.12 28.83 35.75L26.3 35.75Q26.35 35.06 26.7 34.7Q26.81 34.58 26.95 34.49ZM8.76 34.7Q9.08 34.38 9.72 34.38Q10.15 34.38 10.44 34.58Q10.61 34.7 10.73 34.89Q11.04 35.39 11.04 36.28Q11.04 37.14 10.73 37.69Q10.58 37.93 10.37 38.06Q10.11 38.23 9.75 38.23Q9.11 38.23 8.79 37.91Q8.71 37.83 8.64 37.72Q8.34 37.22 8.34 36.29L8.34 36.12Q8.35 35.25 8.66 34.81Q8.71 34.75 8.76 34.7ZM32.69 34.7Q33.01 34.38 33.65 34.38Q34.08 34.38 34.37 34.58Q34.54 34.7 34.66 34.89Q34.97 35.39 34.97 36.28Q34.97 37.14 34.66 37.69Q34.51 37.93 34.3 38.06Q34.04 38.23 33.68 38.23Q33.04 38.23 32.72 37.91Q32.64 37.83 32.57 37.72Q32.27 37.22 32.27 36.29L32.27 36.12Q32.28 35.25 32.59 34.81Q32.64 34.75 32.69 34.7ZM14.61 37.72Q14.26 37.21 14.26 36.29Q14.26 35.37 14.6 34.88Q14.69 34.75 14.81 34.66Q15.14 34.39 15.69 34.39Q16.25 34.39 16.58 34.66Q16.7 34.75 16.79 34.88Q17.14 35.37 17.14 36.29Q17.14 37.21 16.8 37.72Q16.7 37.86 16.57 37.96Q16.24 38.23 15.7 38.23Q15.17 38.23 14.84 37.97Q14.71 37.86 14.61 37.72ZM22.87 34.74Q22.97 34.88 22.97 35.1Q22.97 35.26 22.9 35.39Q22.67 35.78 21.75 35.78L20.63 35.78L20.63 34.42L21.9 34.42Q22.46 34.42 22.71 34.59Q22.81 34.65 22.87 34.74ZM44.04 36.73Q44.4 36.47 45.31 36.42L46.03 36.4L46.03 36.88Q46.03 37.45 45.75 37.79Q45.69 37.87 45.62 37.93Q45.53 38 45.42 38.06Q45.07 38.27 44.58 38.27Q44.19 38.27 43.93 38.08Q43.89 38.05 43.86 38.02Q43.69 37.83 43.69 37.47Q43.69 37.19 43.81 36.98Q43.9 36.84 44.04 36.73ZM22.99 36.96Q23.12 37.13 23.12 37.39Q23.12 37.67 22.98 37.85Q22.9 37.95 22.79 38.01Q22.46 38.19 21.87 38.19L20.63 38.19L20.63 36.6L21.85 36.6Q22.47 36.6 22.79 36.78Q22.92 36.85 22.99 36.96Z" fill="#2C50CC" fill-opacity="1.000000" fill-rule="evenodd"/>
	<rect id="check" width="24.000000" height="24.000000" transform="translate(12.000000 1.000000)" fill="#FFFFFF" fill-opacity="0"/>
	<g clip-path="url(#clip81_6045)">
		<circle id="Ellipse 1999" cx="22.500000" cy="11.500000" r="8.000000" stroke="#2C50CC" stroke-opacity="1.000000" stroke-width="2.000000"/>
		<path id="Vector 35" d="M33.7 21.29L28.7 16.29L27.29 17.7L32.29 22.7C32.68 23.1 33.31 23.1 33.7 22.7C34.1 22.31 34.1 21.68 33.7 21.29Z" fill="#2C50CC" fill-opacity="1.000000" fill-rule="evenodd"/>
		<path id="Vector 36" d="M19.5 12L21.42 13.92C21.46 13.96 21.53 13.96 21.57 13.92L26 9.5" stroke="#2C50CC" stroke-opacity="1.000000" stroke-width="2.000000" stroke-linecap="round"/>
	</g>
</svg>
