<svg width="96" height="96" viewBox="0 0 96 96" fill="none" xmlns="http://www.w3.org/2000/svg">
<path d="M84 56C82.9391 56 81.9217 56.4214 81.1716 57.1716C80.4214 57.9217 80 58.9391 80 60V76C80 77.0609 79.5786 78.0783 78.8284 78.8284C78.0783 79.5786 77.0609 80 76 80H20C18.9391 80 17.9217 79.5786 17.1716 78.8284C16.4214 78.0783 16 77.0609 16 76V60C16 58.9391 15.5786 57.9217 14.8284 57.1716C14.0783 56.4214 13.0609 56 12 56C10.9391 56 9.92172 56.4214 9.17157 57.1716C8.42143 57.9217 8 58.9391 8 60V76C8 79.1826 9.26428 82.2348 11.5147 84.4853C13.7652 86.7357 16.8174 88 20 88H76C79.1826 88 82.2348 86.7357 84.4853 84.4853C86.7357 82.2348 88 79.1826 88 76V60C88 58.9391 87.5786 57.9217 86.8284 57.1716C86.0783 56.4214 85.0609 56 84 56ZM45.16 62.84C45.5404 63.2042 45.989 63.4896 46.48 63.68C46.9588 63.8916 47.4765 64.0009 48 64.0009C48.5235 64.0009 49.0412 63.8916 49.52 63.68C50.011 63.4896 50.4596 63.2042 50.84 62.84L66.84 46.84C67.5932 46.0868 68.0164 45.0652 68.0164 44C68.0164 42.9348 67.5932 41.9132 66.84 41.16C66.0868 40.4068 65.0652 39.9836 64 39.9836C62.9348 39.9836 61.9132 40.4068 61.16 41.16L52 50.36V12C52 10.9391 51.5786 9.92172 50.8284 9.17157C50.0783 8.42143 49.0609 8 48 8C46.9391 8 45.9217 8.42143 45.1716 9.17157C44.4214 9.92172 44 10.9391 44 12V50.36L34.84 41.16C34.467 40.787 34.0243 40.4912 33.537 40.2894C33.0497 40.0875 32.5274 39.9836 32 39.9836C31.4726 39.9836 30.9503 40.0875 30.463 40.2894C29.9757 40.4912 29.533 40.787 29.16 41.16C28.787 41.533 28.4912 41.9757 28.2894 42.463C28.0875 42.9503 27.9836 43.4726 27.9836 44C27.9836 44.5274 28.0875 45.0497 28.2894 45.537C28.4912 46.0243 28.787 46.467 29.16 46.84L45.16 62.84Z" fill="#C2C2C2"/>
</svg>
