<svg width="48" height="42" viewBox="0 0 48 42" fill="none" xmlns="http://www.w3.org/2000/svg">
<path d="M3.30352 39V31.8H4.24852L6.85852 37.215L9.45352 31.8H10.4085V38.995H9.41852V34.07L7.09352 39H6.61852L4.28852 34.07V39H3.30352ZM14.2044 39.15C13.6677 39.15 13.196 39.0333 12.7894 38.8C12.386 38.5633 12.071 38.235 11.8444 37.815C11.621 37.3917 11.5094 36.9017 11.5094 36.345C11.5094 35.755 11.6194 35.2433 11.8394 34.81C12.0627 34.3767 12.3727 34.0417 12.7694 33.805C13.166 33.5683 13.6277 33.45 14.1544 33.45C14.7044 33.45 15.1727 33.5783 15.5594 33.835C15.946 34.0883 16.2344 34.45 16.4244 34.92C16.6177 35.39 16.6944 35.9483 16.6544 36.595H15.6094V36.215C15.6027 35.5883 15.4827 35.125 15.2494 34.825C15.0194 34.525 14.6677 34.375 14.1944 34.375C13.671 34.375 13.2777 34.54 13.0144 34.87C12.751 35.2 12.6194 35.6767 12.6194 36.3C12.6194 36.8933 12.751 37.3533 13.0144 37.68C13.2777 38.0033 13.6577 38.165 14.1544 38.165C14.481 38.165 14.7627 38.0917 14.9994 37.945C15.2394 37.795 15.426 37.5817 15.5594 37.305L16.5844 37.63C16.3744 38.1133 16.056 38.4883 15.6294 38.755C15.2027 39.0183 14.7277 39.15 14.2044 39.15ZM12.2794 36.595V35.78H16.1344V36.595H12.2794ZM19.0345 39V34.54H17.1895V33.6H21.9245V34.54H20.0795V39H19.0345ZM25.4088 39.15C24.8922 39.15 24.4588 39.025 24.1088 38.775C23.7588 38.5217 23.4938 38.18 23.3138 37.75C23.1338 37.32 23.0438 36.835 23.0438 36.295C23.0438 35.755 23.1322 35.27 23.3088 34.84C23.4888 34.41 23.7522 34.0717 24.0988 33.825C24.4488 33.575 24.8788 33.45 25.3888 33.45C25.8955 33.45 26.3322 33.575 26.6988 33.825C27.0688 34.0717 27.3538 34.41 27.5538 34.84C27.7538 35.2667 27.8538 35.7517 27.8538 36.295C27.8538 36.835 27.7538 37.3217 27.5538 37.755C27.3572 38.185 27.0755 38.525 26.7088 38.775C26.3455 39.025 25.9122 39.15 25.4088 39.15ZM22.8688 41.4V33.6H23.7988V37.485H23.9188V41.4H22.8688ZM25.2638 38.205C25.5972 38.205 25.8722 38.12 26.0888 37.95C26.3088 37.78 26.4722 37.5517 26.5788 37.265C26.6888 36.975 26.7438 36.6517 26.7438 36.295C26.7438 35.9417 26.6888 35.6217 26.5788 35.335C26.4722 35.0483 26.3072 34.82 26.0838 34.65C25.8605 34.48 25.5755 34.395 25.2288 34.395C24.9022 34.395 24.6322 34.475 24.4188 34.635C24.2088 34.795 24.0522 35.0183 23.9488 35.305C23.8488 35.5917 23.7988 35.9217 23.7988 36.295C23.7988 36.6683 23.8488 36.9983 23.9488 37.285C24.0488 37.5717 24.2072 37.7967 24.4238 37.96C24.6405 38.1233 24.9205 38.205 25.2638 38.205ZM33.5078 33.6V39H32.5028V35.245L29.8028 39H28.9528V33.6H29.9578V37.28L32.6628 33.6H33.5078ZM34.9001 39L34.9051 33.6H35.9651V36.2L38.0851 33.6H39.4151L37.1751 36.3L39.6451 39H38.2251L35.9651 36.4V39H34.9001ZM44.6992 33.6V39H43.6942V35.245L40.9942 39H40.1442V33.6H41.1492V37.28L43.8542 33.6H44.6992Z" fill="#999999"/>
<path d="M16.2002 21.5V5C16.2002 4.44772 16.6479 4 17.2002 4H28.7002C30.357 4 31.7002 5.34315 31.7002 7V19.5C31.7002 21.1569 30.357 22.5 28.7002 22.5H17.2002C16.6479 22.5 16.2002 22.0523 16.2002 21.5Z" stroke="#999999" stroke-width="2" stroke-linecap="round"/>
<path d="M16.2002 15V15C16.2002 16.6569 17.5433 18 19.2002 18H28.7002C30.357 18 31.7002 16.6569 31.7002 15V15" stroke="#999999" stroke-width="2" stroke-linecap="round"/>
<path d="M21.2002 9H26.7002" stroke="#999999" stroke-width="2" stroke-linecap="round"/>
</svg>
