<svg width="48.000000" height="41.400391" viewBox="0 0 48 41.4004" fill="none" xmlns="http://www.w3.org/2000/svg" xmlns:xlink="http://www.w3.org/1999/xlink">
	<desc>
			Created with Pixso.
	</desc>
	<defs>
		<clipPath id="clip81_6099">
			<rect id="profile" width="24.000000" height="24.000000" transform="translate(12.000000 1.000000)" fill="white" fill-opacity="0"/>
		</clipPath>
	</defs>
	<path id="Label" d="M26.35 34.25Q25.64 33.65 24.5 33.55L24.5 31.39L23.51 31.39L23.51 33.55Q22.21 33.63 21.5 34.33Q21.48 34.35 21.46 34.37Q21.31 34.52 21.19 34.7Q20.75 35.35 20.75 36.3Q20.75 37.1 21.08 37.69Q21.2 37.9 21.35 38.07Q21.63 38.41 22.03 38.64Q22.65 39 23.49 39.07L23.49 41.39L24.5 41.39L24.5 39.07Q25.76 38.96 26.47 38.28Q26.49 38.25 26.52 38.23Q26.69 38.06 26.81 37.86Q27.23 37.22 27.23 36.3Q27.23 35.41 26.82 34.79Q26.68 34.57 26.49 34.38Q26.43 34.31 26.35 34.25ZM1.55 31.85L1.55 39L2.63 39L2.63 32.78L5.92 32.78L5.92 39L6.99 39L6.99 31.85L1.55 31.85ZM12.46 33.74Q12.03 33.5 11.47 33.5Q10.84 33.5 10.45 33.75Q10.07 33.99 9.84 34.32L9.79 34.32L9.64 33.6L8.78 33.6L8.78 41.39L9.84 41.39L9.84 39.2Q9.84 39 9.82 38.76Q9.8 38.51 9.77 38.34L9.84 38.34Q10.07 38.65 10.45 38.87Q10.84 39.1 11.46 39.1Q12 39.1 12.42 38.88Q12.76 38.7 13.03 38.38Q13.63 37.66 13.63 36.29Q13.63 34.91 13.04 34.21Q12.78 33.91 12.46 33.74ZM19.09 38.31Q19.73 37.59 19.73 36.29Q19.73 35.39 19.4 34.78Q19.17 34.33 18.81 34.04Q18.67 33.92 18.51 33.83Q18.48 33.81 18.45 33.8Q17.91 33.5 17.21 33.5Q16.31 33.5 15.71 33.92Q15.51 34.05 15.35 34.23Q15.34 34.24 15.33 34.25Q14.67 34.98 14.67 36.29Q14.67 37.19 14.99 37.81Q15.24 38.27 15.61 38.57Q15.74 38.68 15.88 38.77Q15.95 38.8 16.02 38.84Q16.54 39.1 17.18 39.1Q18.04 39.1 18.64 38.7Q18.86 38.56 19.04 38.37Q19.07 38.34 19.09 38.31ZM29.57 36.98Q29.59 36.71 29.59 36.54L29.59 33.6L28.58 33.6L28.58 39L29.88 39L32.63 34.71Q32.62 34.84 32.6 35.11Q32.59 35.37 32.58 35.66Q32.57 35.94 32.57 36.12L32.57 39L33.57 39L33.57 33.6L32.28 33.6L29.51 37.91Q29.53 37.77 29.54 37.51Q29.56 37.24 29.57 36.98ZM38.49 39L39.56 39L39.56 33.6L36.06 33.6Q35.95 35.27 35.77 36.29Q35.6 37.31 35.35 37.76Q35.14 38.16 34.86 38.21Q34.83 38.22 34.79 38.22Q34.6 38.22 34.46 38.16L34.46 38.98Q34.67 39.08 35.03 39.08Q35.33 39.08 35.58 38.96Q35.82 38.84 36.01 38.61Q36.39 38.15 36.61 37.13Q36.84 36.11 36.97 34.45L38.49 34.45L38.49 39ZM45.67 36.47Q45.18 35.77 43.71 35.77L42.28 35.77L42.28 33.6L41.22 33.6L41.22 39L43.7 39Q44.86 39 45.39 38.54Q45.58 38.37 45.7 38.16Q45.91 37.8 45.91 37.33Q45.91 36.81 45.67 36.47ZM10.25 34.7Q10.57 34.38 11.22 34.38Q11.65 34.38 11.93 34.58Q12.1 34.7 12.22 34.89Q12.54 35.39 12.54 36.28Q12.54 37.14 12.22 37.69Q12.08 37.93 11.86 38.06Q11.6 38.23 11.24 38.23Q10.61 38.23 10.29 37.91Q10.2 37.83 10.14 37.72Q9.84 37.22 9.84 36.29L9.84 36.12Q9.85 35.25 10.16 34.81Q10.2 34.75 10.25 34.7ZM16.1 37.72Q15.76 37.21 15.76 36.29Q15.76 35.37 16.1 34.88Q16.19 34.75 16.3 34.66Q16.63 34.39 17.19 34.39Q17.74 34.39 18.08 34.66Q18.2 34.75 18.29 34.88Q18.64 35.37 18.64 36.29Q18.64 37.21 18.29 37.72Q18.2 37.86 18.06 37.96Q17.74 38.23 17.2 38.23Q16.66 38.23 16.33 37.97Q16.2 37.86 16.1 37.72ZM22.32 34.9Q22.73 34.47 23.51 34.39L23.51 38.23Q22.74 38.14 22.33 37.71Q22.29 37.68 22.26 37.64Q22.25 37.63 22.25 37.62Q21.85 37.12 21.85 36.3Q21.85 35.46 22.26 34.97Q22.29 34.94 22.32 34.9ZM25.68 37.7Q25.27 38.13 24.5 38.23L24.5 34.4Q25.26 34.49 25.67 34.92Q25.7 34.95 25.73 34.99Q25.73 34.99 25.73 34.99Q26.14 35.48 26.14 36.3Q26.14 37.13 25.74 37.63Q25.71 37.67 25.68 37.7ZM44.71 36.91Q44.85 37.08 44.85 37.36Q44.85 37.65 44.71 37.83Q44.63 37.94 44.51 38.01Q44.17 38.19 43.65 38.19L42.28 38.19L42.28 36.6L43.63 36.6Q44.21 36.6 44.53 36.77Q44.64 36.82 44.71 36.91Z" fill="#999999" fill-opacity="1.000000" fill-rule="evenodd"/>
	<rect id="profile" width="24.000000" height="24.000000" transform="translate(12.000000 1.000000)" fill="#FFFFFF" fill-opacity="0"/>
	<g clip-path="url(#clip81_6099)">
		<path id="Vector" d="M16.74 15.87C17.54 15.07 18.62 14.62 19.75 14.62L28.25 14.62C29.37 14.62 30.45 15.07 31.25 15.87C32.05 16.66 32.5 17.74 32.5 18.87C32.5 19.43 32.27 19.97 31.87 20.37C31.47 20.77 30.93 21 30.37 21L17.62 21C17.06 21 16.52 20.77 16.12 20.37C15.72 19.97 15.5 19.43 15.5 18.87C15.5 17.74 15.94 16.66 16.74 15.87Z" stroke="#999999" stroke-opacity="1.000000" stroke-width="2.000000" stroke-linejoin="round"/>
		<path id="Vector" d="M24 10.37C22.23 10.37 20.81 8.94 20.81 7.18C20.81 5.42 22.23 4 24 4C25.76 4 27.18 5.42 27.18 7.18C27.18 8.94 25.76 10.37 24 10.37Z" stroke="#999999" stroke-opacity="1.000000" stroke-width="2.000000"/>
	</g>
</svg>
