<svg xmlns="http://www.w3.org/2000/svg" xmlns:xlink="http://www.w3.org/1999/xlink" viewBox="0 0 160.67 165.01"><defs><style>.a{fill:none;}.b{clip-path:url(#a);}.c{fill:url(#b);}.d{clip-path:url(#c);}.e{fill:url(#d);}.f{clip-path:url(#e);}.g{fill:url(#f);}.h{clip-path:url(#g);}.i{fill:url(#h);}.j{clip-path:url(#i);}.k{fill:url(#j);}.l{clip-path:url(#k);}.m{fill:url(#l);}.n{clip-path:url(#m);}.o{fill:url(#n);}.p{clip-path:url(#o);}.q{fill:#4b4748;}</style><clipPath id="a" transform="translate(-438.75 -416.45)"><path class="a" d="M504,489.92a11.5,11.5,0,1,0,8.54-3.8,11.58,11.58,0,0,0-8.54,3.8"/></clipPath><radialGradient id="b" cx="196.56" cy="847.07" r="1.44" gradientTransform="matrix(11.27, 0.01, -0.01, 11.3, -2138.59, -9499.66)" gradientUnits="userSpaceOnUse"><stop offset="0" stop-color="#0087bb"/><stop offset="0.06" stop-color="#0481b4"/><stop offset="0.48" stop-color="#1d5887"/><stop offset="0.81" stop-color="#2d3e6b"/><stop offset="1" stop-color="#333561"/></radialGradient><clipPath id="c" transform="translate(-438.75 -416.45)"><path class="a" d="M479.5,453.51c17-8.22,28.72-2.55,36,4.63,1,1,1.86,1.92,2.67,2.89a45.4,45.4,0,0,1,6.81,11,35.44,35.44,0,0,0,8.3.57l.49,0,.45,0a31.65,31.65,0,0,0,19.89-9.49l.7-.73c-1-1.25-2.13-2.49-3.3-3.67a55.23,55.23,0,0,0-72-5.16"/></clipPath><linearGradient id="d" x1="209.48" y1="853.25" x2="210.92" y2="853.25" gradientTransform="matrix(0, 36.32, -36.32, 0, 31508.02, -7174.09)" xlink:href="#b"/><clipPath id="e" transform="translate(-438.75 -416.45)"><path class="a" d="M458.9,482.77a55.22,55.22,0,0,0,31.54,65h0c-15.6-10.58-16.57-23.59-14-33.51.34-1.31.74-2.57,1.17-3.76a45.33,45.33,0,0,1,6.14-11.4,35.57,35.57,0,0,0-3.65-7.47l-.27-.42-.26-.37a31.61,31.61,0,0,0-18.17-12.48c-.32-.09-.65-.17-1-.25-.56,1.54-1.08,3.09-1.52,4.7"/></clipPath><linearGradient id="f" x1="218.34" y1="846.95" x2="219.78" y2="846.95" gradientTransform="translate(-30288.65 8466.65) rotate(-90) scale(36.32)" xlink:href="#b"/><clipPath id="g" transform="translate(-438.75 -416.45)"><path class="a" d="M544.67,520.09c-1.3.36-2.6.64-3.84.87a45.59,45.59,0,0,1-12.95.38,35.78,35.78,0,0,0-4.64,6.9c-.08.15-.15.29-.23.44l-.19.41a31.66,31.66,0,0,0-1.72,22c.08.32.18.64.28,1,1.61-.29,3.22-.61,4.82-1a55.22,55.22,0,0,0,40.49-59.8c-1.37,18.81-12.16,26.14-22,28.88"/></clipPath><linearGradient id="h" x1="219.33" y1="857.79" x2="220.77" y2="857.79" gradientTransform="matrix(-36.33, 0, 0, -36.33, 8535.35, 31683.48)" xlink:href="#b"/><clipPath id="i" transform="translate(-438.75 -416.45)"><path class="a" d="M479.5,453.51a52.16,52.16,0,0,0-18.23,22.56,33,33,0,0,1,24.57,22.22c1.52-1,6.19-4.66,9.33-14.83,3.8-12.31,11-21.37,20.36-25.33a24.34,24.34,0,0,0-19.33-9.08c-4.7,0-10.26,1.2-16.7,4.45"/></clipPath><linearGradient id="j" x1="213.6" y1="844.77" x2="215.04" y2="844.77" gradientTransform="translate(-5452 -22963.78) scale(27.74)" xlink:href="#b"/><clipPath id="k" transform="translate(-438.75 -416.45)"><path class="a" d="M490.44,547.72a52.16,52.16,0,0,0,28.61,4.52,31.43,31.43,0,0,1-1.6-10.2,32.87,32.87,0,0,1,8.65-22.25l.08-.12c-1.14-1.21-5.09-4.18-15.26-1.87-12.54,2.86-26.39,2.53-34.48-3.59,0,0-8.69,18.69,14,33.51"/></clipPath><linearGradient id="l" x1="223.67" y1="855.8" x2="225.11" y2="855.8" gradientTransform="translate(6626.66 23904.57) rotate(180) scale(27.31)" xlink:href="#b"/><clipPath id="m" transform="translate(-438.75 -416.45)"><path class="a" d="M531.85,475.2a35.63,35.63,0,0,1-7.26-.76l-.12,0c-.46,1.72-.85,6.57,6.06,14,8.75,9.44,15.38,21.59,14.13,31.67,0,0,20.53-1.82,22-28.88a52.22,52.22,0,0,0-10.41-27.07,32.6,32.6,0,0,1-24.43,11.07"/></clipPath><linearGradient id="n" x1="212.09" y1="859.7" x2="213.53" y2="859.7" gradientTransform="translate(25039.61 -5568.21) rotate(90) scale(28.49)" xlink:href="#b"/><clipPath id="o" transform="translate(-438.75 -416.45)"><rect class="a" x="455.61" y="442.55" width="112.77" height="138.9"/></clipPath></defs><title>Rosatom logo</title><g class="b"><rect class="c" x="60.95" y="69.67" width="25.65" height="24.44"/></g><g class="d"><rect class="e" x="489.09" y="417.07" width="56.16" height="81.16" transform="translate(-539.28 349.99) rotate(-68.07)"/></g><g class="f"><rect class="g" x="447.05" y="475.7" width="48.08" height="74.4" transform="translate(-506.06 -345.26) rotate(-8.07)"/></g><g class="h"><rect class="i" x="505.31" y="481.87" width="77.88" height="79.51" transform="translate(-644.6 30.06) rotate(-38.07)"/></g><g class="j"><rect class="k" x="452.96" y="437.51" width="70.88" height="72.34" transform="matrix(0.55, -0.84, 0.84, 0.55, -613.85, 207.79)"/></g><g class="l"><rect class="m" x="465.86" y="511.35" width="62.2" height="45.85" transform="translate(-490.37 -363.29) rotate(-5.82)"/></g><g class="n"><rect class="o" x="518.6" y="460.49" width="53.11" height="63.25" transform="translate(-523.99 -301.12) rotate(-11.21)"/></g><g class="p"><path class="q" d="M464.51,567.24a28.11,28.11,0,0,1,4.26-.29c2.1,0,3.57.32,4.58,1.12a3.6,3.6,0,0,1,1.3,3,3.76,3.76,0,0,1-2.5,3.49v.06a3.59,3.59,0,0,1,1.89,2.65c.44,1.6.88,3.45,1.15,4h-3.28a18.24,18.24,0,0,1-1-3.3c-.38-1.77-1-2.25-2.29-2.27h-1v5.57h-3.17Zm3.17,6.1h1.26c1.6,0,2.54-.8,2.54-2s-.89-2-2.36-2a8.2,8.2,0,0,0-1.45.1Z" transform="translate(-438.75 -416.45)"/><path class="q" d="M491,574c0,4.64-2.82,7.46-7,7.46s-6.66-3.18-6.66-7.21c0-4.25,2.71-7.42,6.89-7.42,4.35,0,6.73,3.26,6.73,7.17m-10.24.19c0,2.77,1.3,4.73,3.45,4.73s3.4-2.06,3.4-4.82c0-2.54-1.22-4.73-3.43-4.73s-3.43,2.06-3.43,4.81" transform="translate(-438.75 -416.45)"/><path class="q" d="M494.24,577.92a8.21,8.21,0,0,0,3.55.89c1.47,0,2.25-.61,2.25-1.54s-.68-1.39-2.38-2c-2.36-.82-3.89-2.13-3.89-4.18,0-2.42,2-4.27,5.36-4.27a8.7,8.7,0,0,1,3.62.71l-.72,2.59a6.67,6.67,0,0,0-3-.67c-1.39,0-2.06.63-2.06,1.37,0,.91.8,1.3,2.63,2,2.5.92,3.68,2.23,3.68,4.22,0,2.38-1.83,4.42-5.72,4.42a9.25,9.25,0,0,1-4-.89Z" transform="translate(-438.75 -416.45)"/><path class="q" d="M509,576.76l-1.47,4.45h-1.89l4.81-14.16h2.21l4.83,14.16h-2l-1.51-4.45Zm4.65-1.43-1.39-4.08c-.32-.93-.53-1.76-.73-2.59h0c-.21.84-.44,1.7-.71,2.57l-1.39,4.1Z" transform="translate(-438.75 -416.45)"/><polygon class="q" points="83 152.16 78.69 152.16 78.69 150.61 89.17 150.61 89.17 152.16 84.84 152.16 84.84 164.77 83 164.77 83 152.16"/><path class="q" d="M542.09,574c0,4.87-3,7.46-6.58,7.46s-6.36-2.91-6.36-7.2c0-4.5,2.79-7.44,6.57-7.44s6.37,3,6.37,7.17m-11,.23c0,3,1.64,5.74,4.52,5.74s4.54-2.66,4.54-5.88c0-2.82-1.48-5.76-4.52-5.76s-4.54,2.8-4.54,5.9" transform="translate(-438.75 -416.45)"/><path class="q" d="M557.45,575c-.1-2-.23-4.35-.21-6.12h-.06c-.49,1.66-1.07,3.45-1.78,5.38l-2.5,6.88H551.5l-2.29-6.75c-.68-2-1.24-3.82-1.64-5.5h0c0,1.77-.15,4.14-.28,6.27l-.37,6.07h-1.74l1-14.16h2.33l2.42,6.85c.59,1.74,1.07,3.3,1.43,4.77h.06c.36-1.42.86-3,1.49-4.77l2.52-6.85h2.33l.88,14.16H557.8Z" transform="translate(-438.75 -416.45)"/></g></svg>