<svg width="24.000000" height="24.000000" viewBox="0 0 24 24" fill="none" xmlns="http://www.w3.org/2000/svg" xmlns:xlink="http://www.w3.org/1999/xlink">
	<desc>
			Created with Pixso.
	</desc>
	<defs>
		<clipPath id="clip2_3132">
			<rect id="icon-24" rx="-0.500000" width="23.000000" height="23.000000" transform="translate(0.500000 0.500000)" fill="white" fill-opacity="0"/>
		</clipPath>
	</defs>
	<rect id="icon-24" rx="-0.500000" width="23.000000" height="23.000000" transform="translate(0.500000 0.500000)" fill="#FFFFFF" fill-opacity="0"/>
	<g clip-path="url(#clip2_3132)">
		<circle id="Ellipse 2000" cx="12.000000" cy="12.500000" r="4.000000" fill="#FFFFFF" fill-opacity="1.000000"/>
		<path id="Vector 41" d="M3 17.5C3 18.6 3.89 19.5 5 19.5L19 19.5C20.1 19.5 21 18.6 21 17.5L21 8C21 6.89 20.1 6 19 6L17 6C16.68 6 16.38 5.85 16.2 5.59L15.14 4.2C15.05 4.07 14.9 4 14.75 4L8.75 4C8.59 4 8.44 4.07 8.35 4.2L7.29 5.59C7.11 5.85 6.81 6 6.5 6L5 6C3.89 6 3 6.89 3 8L3 17.5Z" stroke="#FFFFFF" stroke-opacity="1.000000" stroke-width="2.000000"/>
	</g>
</svg>
