<svg width="32" height="32" viewBox="0 0 32 32" fill="none" xmlns="http://www.w3.org/2000/svg">
<path fill-rule="evenodd" clip-rule="evenodd" d="M16 32C24.8365 32 32 24.8364 32 16C32 7.16357 24.8365 0 16 0C7.16345 0 0 7.16357 0 16C0 24.8364 7.16345 32 16 32ZM11.795 25.2515C12.9508 25.7505 14.1858 26 15.5 26H20.25V24.1001H15.5C13.3783 24.1001 11.5813 23.3638 10.1088 21.8911C8.63623 20.4189 7.90002 18.6216 7.90002 16.5C7.90002 14.3784 8.63623 12.5811 10.1088 11.1089C11.5813 9.63623 13.3783 8.8999 15.5 8.8999C17.6217 8.8999 19.4187 9.63623 20.8912 11.1089C22.3638 12.5811 23.1 14.3784 23.1 16.5V17.8774C23.1 18.2891 22.9655 18.6377 22.6963 18.9224C22.4271 19.2075 22.0867 19.3501 21.675 19.3501C21.2633 19.3501 20.9229 19.2075 20.6537 18.9224C20.3845 18.6377 20.25 18.2891 20.25 17.8774V16.5C20.2518 15.1865 19.7889 14.0664 18.8611 13.1396C17.9332 12.2134 16.8129 11.75 15.5 11.75C14.1871 11.75 13.067 12.2134 12.1399 13.1396C11.2126 14.0664 10.7494 15.1865 10.75 16.5C10.7506 17.8135 11.2139 18.9336 12.1399 19.8604C13.0658 20.7866 14.1858 21.25 15.5 21.25C16.1327 21.2505 16.7382 21.1362 17.3164 20.9062C17.8947 20.6763 18.4133 20.3315 18.8724 19.8726C19.205 20.3159 19.6167 20.6562 20.1075 20.8936C20.5983 21.1313 21.1208 21.25 21.675 21.25C22.6097 21.2505 23.3977 20.9224 24.0386 20.2646C24.6796 19.6074 25 18.8115 25 17.8774V16.5C25.0018 15.1865 24.7527 13.9517 24.2523 12.7949C23.752 11.6387 23.075 10.6333 22.2212 9.77881C21.3676 8.92432 20.3621 8.24756 19.205 7.74854C18.0479 7.24951 16.8129 7 15.5 7C14.1871 7 12.9521 7.24951 11.795 7.74854C10.6379 8.24756 9.63245 8.92432 8.77881 9.77881C7.92505 10.6333 7.24829 11.6387 6.74866 12.7949C6.2489 13.9517 5.99939 15.1865 6 16.5C6.00061 17.8135 6.25012 19.0483 6.74866 20.2051C7.24707 21.3613 7.92371 22.3667 8.77881 23.2212C9.63379 24.0757 10.6392 24.7524 11.795 25.2515ZM17.5188 18.5186C16.9646 19.0728 16.2916 19.3501 15.5 19.3501C14.7084 19.3501 14.0354 19.0728 13.4812 18.5186C12.9271 17.9644 12.65 17.2915 12.65 16.5C12.65 15.7085 12.9271 15.0356 13.4812 14.4814C14.0354 13.9272 14.7084 13.6499 15.5 13.6499C16.2916 13.6499 16.9646 13.9272 17.5188 14.4814C18.0729 15.0356 18.35 15.7085 18.35 16.5C18.35 17.2915 18.0729 17.9644 17.5188 18.5186Z" fill="black"/>
</svg>
