<svg width="32" height="32" viewBox="0 0 32 32" fill="none" xmlns="http://www.w3.org/2000/svg">
<g clip-path="url(#clip0_81_5530)">
<path fill-rule="evenodd" clip-rule="evenodd" d="M16 32C24.8366 32 32 24.8366 32 16C32 7.16344 24.8366 0 16 0C7.16344 0 0 7.16344 0 16C0 24.8366 7.16344 32 16 32ZM25.459 22.687H23.136C22.5092 22.687 22.1913 22.3328 21.4882 21.5493C21.2042 21.2329 20.8574 20.8464 20.402 20.385C19.027 19.052 18.418 18.875 18.079 18.875C17.6 18.875 17.464 19.01 17.464 19.667V21.766C17.464 22.329 17.287 22.667 15.797 22.667C13.333 22.667 10.599 21.177 8.682 18.401C5.791 14.333 5 11.286 5 10.656C5 10.317 5.135 10 5.786 10H8.114C8.703 10 8.927 10.271 9.156 10.901C10.307 14.224 12.224 17.135 13.015 17.135C13.307 17.135 13.442 17 13.442 16.255V12.823C13.387 11.8447 13.0478 11.419 12.7967 11.1039C12.6415 10.9092 12.52 10.7567 12.52 10.542C12.52 10.271 12.744 10 13.103 10H16.764C17.259 10 17.441 10.271 17.441 10.854V15.484C17.441 15.984 17.665 16.161 17.8 16.161C18.092 16.161 18.342 15.984 18.883 15.442C20.555 13.567 21.753 10.676 21.753 10.676C21.909 10.337 22.18 10.02 22.769 10.02H25.097C25.795 10.02 25.951 10.379 25.795 10.879C25.503 12.233 22.654 16.254 22.654 16.254C22.409 16.66 22.315 16.837 22.654 17.29C22.7773 17.4573 23.0378 17.7131 23.3349 18.0051C23.64 18.3049 23.9839 18.6428 24.258 18.962C25.253 20.092 26.018 21.04 26.222 21.696C26.451 22.347 26.113 22.686 25.456 22.686L25.459 22.687Z" fill="black"/>
</g>
<defs>
<clipPath id="clip0_81_5530">
<rect width="32" height="32" fill="white"/>
</clipPath>
</defs>
</svg>
